<mxfile host="drawio-plugin" modified="2021-04-27T07:58:40.726Z" agent="5.0 (Windows NT 6.2; Win64; x64) AppleWebKit/537.36 (KHTML, like Gecko) Chrome/87.0.4280.141 Safari/537.36" etag="i4hxj8VbA__KpYFCP6lk" version="13.7.9" type="embed"><diagram id="qB0nds7nDb8cxuCtOQt2" name="Page-1"><mxGraphModel dx="1338" dy="1115" grid="1" gridSize="10" guides="1" tooltips="1" connect="1" arrows="1" fold="1" page="1" pageScale="1" pageWidth="1169" pageHeight="827" math="0" shadow="0"><root><mxCell id="0"/><mxCell id="1" parent="0"/><mxCell id="16" style="edgeStyle=orthogonalEdgeStyle;rounded=0;orthogonalLoop=1;jettySize=auto;html=1;exitX=0;exitY=0.5;exitDx=0;exitDy=0;entryX=1;entryY=0.5;entryDx=0;entryDy=0;entryPerimeter=0;" edge="1" parent="1" source="2" target="15"><mxGeometry relative="1" as="geometry"/></mxCell><mxCell id="52" value="Write" style="edgeLabel;html=1;align=center;verticalAlign=middle;resizable=0;points=[];" vertex="1" connectable="0" parent="16"><mxGeometry x="0.3084" y="-1" relative="1" as="geometry"><mxPoint as="offset"/></mxGeometry></mxCell><mxCell id="2" value="Controller1" style="swimlane;html=1;childLayout=stackLayout;resizeParent=1;resizeParentMax=0;horizontal=1;startSize=40;horizontalStack=0;" parent="1" vertex="1"><mxGeometry x="370" y="120" width="260" height="110" as="geometry"/></mxCell><mxCell id="3" value="Lane 1" style="swimlane;html=1;startSize=20;horizontal=0;" parent="2" vertex="1"><mxGeometry y="40" width="260" height="70" as="geometry"/></mxCell><mxCell id="4" value="&lt;pre style=&quot;background-color: #2b2b2b ; color: #a9b7c6 ; font-family: &amp;#34;jetbrains mono&amp;#34; , monospace ; font-size: 12.0pt&quot;&gt;&lt;span style=&quot;color: #ffc66d&quot;&gt;createFreighterTimetable&lt;/span&gt;&lt;/pre&gt;" style="text;html=1;align=center;verticalAlign=middle;resizable=0;points=[];autosize=1;" vertex="1" parent="3"><mxGeometry x="17.5" y="10" width="250" height="50" as="geometry"/></mxCell><mxCell id="15" value="" style="verticalLabelPosition=bottom;html=1;verticalAlign=top;align=center;strokeColor=none;fillColor=#00BEF2;shape=mxgraph.azure.cloud_services_configuration_file;pointerEvents=1;" vertex="1" parent="1"><mxGeometry x="170" y="150" width="47.5" height="50" as="geometry"/></mxCell><mxCell id="35" style="edgeStyle=orthogonalEdgeStyle;rounded=0;orthogonalLoop=1;jettySize=auto;html=1;exitX=0.5;exitY=0;exitDx=0;exitDy=0;exitPerimeter=0;entryX=1.004;entryY=0.465;entryDx=0;entryDy=0;entryPerimeter=0;startArrow=classic;startFill=1;" edge="1" parent="1" source="18" target="4"><mxGeometry relative="1" as="geometry"/></mxCell><mxCell id="44" value="GET" style="edgeLabel;html=1;align=center;verticalAlign=middle;resizable=0;points=[];" vertex="1" connectable="0" parent="35"><mxGeometry x="0.286" y="-1" relative="1" as="geometry"><mxPoint as="offset"/></mxGeometry></mxCell><mxCell id="36" style="edgeStyle=orthogonalEdgeStyle;rounded=0;orthogonalLoop=1;jettySize=auto;html=1;exitX=0.25;exitY=0.1;exitDx=0;exitDy=0;exitPerimeter=0;entryX=1;entryY=0.5;entryDx=0;entryDy=0;startArrow=classic;startFill=1;" edge="1" parent="1" source="18" target="6"><mxGeometry relative="1" as="geometry"><Array as="points"><mxPoint x="967" y="415"/></Array></mxGeometry></mxCell><mxCell id="45" value="GET" style="edgeLabel;html=1;align=center;verticalAlign=middle;resizable=0;points=[];" vertex="1" connectable="0" parent="36"><mxGeometry x="-0.0184" y="-3" relative="1" as="geometry"><mxPoint as="offset"/></mxGeometry></mxCell><mxCell id="37" style="edgeStyle=orthogonalEdgeStyle;rounded=0;orthogonalLoop=1;jettySize=auto;html=1;exitX=0;exitY=0.3333333333333333;exitDx=0;exitDy=0;exitPerimeter=0;entryX=1;entryY=0.5;entryDx=0;entryDy=0;startArrow=classic;startFill=1;" edge="1" parent="1" source="18" target="7"><mxGeometry relative="1" as="geometry"><Array as="points"><mxPoint x="815" y="460"/><mxPoint x="815" y="465"/></Array></mxGeometry></mxCell><mxCell id="46" value="GET" style="edgeLabel;html=1;align=center;verticalAlign=middle;resizable=0;points=[];" vertex="1" connectable="0" parent="37"><mxGeometry x="0.0004" y="16" relative="1" as="geometry"><mxPoint as="offset"/></mxGeometry></mxCell><mxCell id="41" style="edgeStyle=orthogonalEdgeStyle;rounded=0;orthogonalLoop=1;jettySize=auto;html=1;exitX=0;exitY=1;exitDx=0;exitDy=0;exitPerimeter=0;startArrow=classic;startFill=1;entryX=1;entryY=0.5;entryDx=0;entryDy=0;" edge="1" parent="1" source="18" target="25"><mxGeometry relative="1" as="geometry"><mxPoint x="680" y="740" as="targetPoint"/></mxGeometry></mxCell><mxCell id="48" value="GET" style="edgeLabel;html=1;align=center;verticalAlign=middle;resizable=0;points=[];" vertex="1" connectable="0" parent="41"><mxGeometry x="-0.6785" y="2" relative="1" as="geometry"><mxPoint as="offset"/></mxGeometry></mxCell><mxCell id="18" value="Actor" style="shape=umlActor;verticalLabelPosition=bottom;verticalAlign=top;html=1;" vertex="1" parent="1"><mxGeometry x="960" y="440" width="30" height="60" as="geometry"/></mxCell><mxCell id="21" value="TimeTable.json" style="text;html=1;align=center;verticalAlign=middle;resizable=0;points=[];autosize=1;" vertex="1" parent="1"><mxGeometry x="70" y="165" width="100" height="20" as="geometry"/></mxCell><mxCell id="5" value="Controller2" style="swimlane;html=1;childLayout=stackLayout;resizeParent=1;resizeParentMax=0;horizontal=1;startSize=40;horizontalStack=0;" vertex="1" parent="1"><mxGeometry x="330" y="350" width="340" height="190" as="geometry"/></mxCell><mxCell id="6" value="Lane 1" style="swimlane;html=1;startSize=20;horizontal=0;" vertex="1" parent="5"><mxGeometry y="40" width="340" height="50" as="geometry"/></mxCell><mxCell id="9" value="&lt;pre style=&quot;background-color: #2b2b2b ; color: #a9b7c6 ; font-family: &amp;#34;jetbrains mono&amp;#34; , monospace ; font-size: 12.0pt&quot;&gt;&lt;span style=&quot;color: #ffc66d&quot;&gt;getFreighterTimetable&lt;/span&gt;&lt;/pre&gt;" style="text;html=1;align=center;verticalAlign=middle;resizable=0;points=[];autosize=1;" vertex="1" parent="6"><mxGeometry x="60" width="220" height="50" as="geometry"/></mxCell><mxCell id="7" value="Lane 2" style="swimlane;html=1;startSize=20;horizontal=0;" vertex="1" parent="5"><mxGeometry y="90" width="340" height="50" as="geometry"/></mxCell><mxCell id="10" value="&lt;pre style=&quot;background-color: #2b2b2b ; color: #a9b7c6 ; font-family: &amp;#34;jetbrains mono&amp;#34; , monospace ; font-size: 12.0pt&quot;&gt;&lt;span style=&quot;color: #ffc66d&quot;&gt;getFreighterTimetableByPath&lt;/span&gt;&lt;/pre&gt;" style="text;html=1;align=center;verticalAlign=middle;resizable=0;points=[];autosize=1;" vertex="1" parent="7"><mxGeometry x="46.25" width="270" height="50" as="geometry"/></mxCell><mxCell id="8" value="Lane 3" style="swimlane;html=1;startSize=20;horizontal=0;" vertex="1" parent="5"><mxGeometry y="140" width="340" height="50" as="geometry"/></mxCell><mxCell id="11" value="&lt;pre style=&quot;background-color: #2b2b2b ; color: #a9b7c6 ; font-family: &amp;#34;jetbrains mono&amp;#34; , monospace ; font-size: 12.0pt&quot;&gt;&lt;span style=&quot;color: #ffc66d&quot;&gt;postStatisticalResultsToJsonFile&lt;/span&gt;&lt;/pre&gt;" style="text;html=1;align=center;verticalAlign=middle;resizable=0;points=[];autosize=1;" vertex="1" parent="8"><mxGeometry x="16.25" width="320" height="50" as="geometry"/></mxCell><mxCell id="24" value="Controller3" style="swimlane;html=1;childLayout=stackLayout;resizeParent=1;resizeParentMax=0;horizontal=1;startSize=40;horizontalStack=0;" vertex="1" parent="1"><mxGeometry x="363.75" y="630" width="272.5" height="110" as="geometry"/></mxCell><mxCell id="25" value="Lane 1" style="swimlane;html=1;startSize=20;horizontal=0;" vertex="1" parent="24"><mxGeometry y="40" width="272.5" height="70" as="geometry"/></mxCell><mxCell id="26" value="&lt;pre style=&quot;background-color: #2b2b2b ; color: #a9b7c6 ; font-family: &amp;#34;jetbrains mono&amp;#34; , monospace ; font-size: 12.0pt&quot;&gt;&lt;pre style=&quot;font-family: &amp;#34;jetbrains mono&amp;#34; , monospace ; font-size: 12pt&quot;&gt;&lt;span style=&quot;color: #ffc66d&quot;&gt;generateSimulationResults&lt;/span&gt;&lt;/pre&gt;&lt;/pre&gt;" style="text;html=1;align=center;verticalAlign=middle;resizable=0;points=[];autosize=1;" vertex="1" parent="25"><mxGeometry x="6.25" y="10" width="260" height="50" as="geometry"/></mxCell><mxCell id="28" style="edgeStyle=orthogonalEdgeStyle;rounded=0;orthogonalLoop=1;jettySize=auto;html=1;exitX=0;exitY=0.25;exitDx=0;exitDy=0;entryX=0.724;entryY=1.029;entryDx=0;entryDy=0;entryPerimeter=0;startArrow=classic;startFill=1;endArrow=none;endFill=0;" edge="1" parent="1" source="6" target="15"><mxGeometry relative="1" as="geometry"><mxPoint x="220" y="260" as="targetPoint"/><Array as="points"><mxPoint x="204" y="403"/></Array></mxGeometry></mxCell><mxCell id="50" value="Read" style="edgeLabel;html=1;align=center;verticalAlign=middle;resizable=0;points=[];" vertex="1" connectable="0" parent="28"><mxGeometry x="-0.2309" y="-47" relative="1" as="geometry"><mxPoint x="-49" y="-47" as="offset"/></mxGeometry></mxCell><mxCell id="33" style="edgeStyle=orthogonalEdgeStyle;rounded=0;orthogonalLoop=1;jettySize=auto;html=1;exitX=0;exitY=0.5;exitDx=0;exitDy=0;startArrow=classic;startFill=1;entryX=1;entryY=0.5;entryDx=0;entryDy=0;entryPerimeter=0;endArrow=none;endFill=0;" edge="1" parent="1" source="7" target="34"><mxGeometry relative="1" as="geometry"><mxPoint x="150" y="465" as="targetPoint"/></mxGeometry></mxCell><mxCell id="54" value="Read" style="edgeLabel;html=1;align=center;verticalAlign=middle;resizable=0;points=[];" vertex="1" connectable="0" parent="33"><mxGeometry x="0.2843" y="1" relative="1" as="geometry"><mxPoint as="offset"/></mxGeometry></mxCell><mxCell id="34" value="" style="verticalLabelPosition=bottom;html=1;verticalAlign=top;align=center;strokeColor=none;fillColor=#00BEF2;shape=mxgraph.azure.cloud_services_configuration_file;pointerEvents=1;" vertex="1" parent="1"><mxGeometry x="96" y="440" width="47.5" height="50" as="geometry"/></mxCell><mxCell id="39" value="" style="verticalLabelPosition=bottom;html=1;verticalAlign=top;align=center;strokeColor=none;fillColor=#00BEF2;shape=mxgraph.azure.cloud_services_configuration_file;pointerEvents=1;" vertex="1" parent="1"><mxGeometry x="96" y="580" width="47.5" height="50" as="geometry"/></mxCell><mxCell id="40" style="edgeStyle=orthogonalEdgeStyle;rounded=0;orthogonalLoop=1;jettySize=auto;html=1;exitX=0;exitY=0.5;exitDx=0;exitDy=0;entryX=1;entryY=0.5;entryDx=0;entryDy=0;entryPerimeter=0;startArrow=none;startFill=0;" edge="1" parent="1" source="8" target="39"><mxGeometry relative="1" as="geometry"/></mxCell><mxCell id="53" value="Write" style="edgeLabel;html=1;align=center;verticalAlign=middle;resizable=0;points=[];" vertex="1" connectable="0" parent="40"><mxGeometry x="0.1046" y="4" relative="1" as="geometry"><mxPoint as="offset"/></mxGeometry></mxCell><mxCell id="42" style="edgeStyle=orthogonalEdgeStyle;rounded=0;orthogonalLoop=1;jettySize=auto;html=1;exitX=0;exitY=0.5;exitDx=0;exitDy=0;entryX=0;entryY=0.5;entryDx=0;entryDy=0;startArrow=classic;startFill=1;" edge="1" parent="1" source="6" target="24"><mxGeometry relative="1" as="geometry"><Array as="points"><mxPoint x="70" y="415"/><mxPoint x="70" y="685"/></Array></mxGeometry></mxCell><mxCell id="49" value="GET" style="edgeLabel;html=1;align=center;verticalAlign=middle;resizable=0;points=[];" vertex="1" connectable="0" parent="42"><mxGeometry x="0.5559" y="-2" relative="1" as="geometry"><mxPoint as="offset"/></mxGeometry></mxCell><mxCell id="43" style="edgeStyle=orthogonalEdgeStyle;rounded=0;orthogonalLoop=1;jettySize=auto;html=1;exitX=1;exitY=0.25;exitDx=0;exitDy=0;entryX=1;entryY=0.5;entryDx=0;entryDy=0;startArrow=classic;startFill=1;" edge="1" parent="1" source="25" target="8"><mxGeometry relative="1" as="geometry"><Array as="points"><mxPoint x="840" y="687"/><mxPoint x="840" y="515"/></Array></mxGeometry></mxCell><mxCell id="47" value="&lt;font style=&quot;font-size: 14px&quot;&gt;POST&lt;/font&gt;" style="edgeLabel;html=1;align=center;verticalAlign=middle;resizable=0;points=[];" vertex="1" connectable="0" parent="43"><mxGeometry x="-0.254" y="60" relative="1" as="geometry"><mxPoint x="64" y="-60" as="offset"/></mxGeometry></mxCell><mxCell id="55" value="Result" style="text;html=1;align=center;verticalAlign=middle;resizable=0;points=[];autosize=1;" vertex="1" parent="1"><mxGeometry x="96" y="630" width="50" height="20" as="geometry"/></mxCell><mxCell id="57" value="MyTimeTable.json" style="text;html=1;align=center;verticalAlign=middle;resizable=0;points=[];autosize=1;" vertex="1" parent="1"><mxGeometry x="80" y="490" width="110" height="20" as="geometry"/></mxCell></root></mxGraphModel></diagram></mxfile>